<svg width="21" height="20" viewBox="0 0 21 20" fill="none" xmlns="http://www.w3.org/2000/svg">
<path d="M9.54548 18.1818C9.99735 18.1818 10.3637 17.8155 10.3637 17.3636C10.3637 16.9118 9.99735 16.5455 9.54548 16.5455C9.09361 16.5455 8.72729 16.9118 8.72729 17.3636C8.72729 17.8155 9.09361 18.1818 9.54548 18.1818Z" stroke="#9B9B9B" stroke-width="2" stroke-linecap="round" stroke-linejoin="round"/>
<path d="M18.5455 18.1818C18.9973 18.1818 19.3637 17.8155 19.3637 17.3636C19.3637 16.9118 18.9973 16.5455 18.5455 16.5455C18.0936 16.5455 17.7273 16.9118 17.7273 17.3636C17.7273 17.8155 18.0936 18.1818 18.5455 18.1818Z" stroke="#9B9B9B" stroke-width="2" stroke-linecap="round" stroke-linejoin="round"/>
<path d="M1 1H4.27273L6.46545 11.9555C6.54027 12.3321 6.7452 12.6705 7.04436 12.9113C7.34351 13.1522 7.71784 13.2801 8.10182 13.2727H16.0545C16.4385 13.2801 16.8129 13.1522 17.112 12.9113C17.4112 12.6705 17.6161 12.3321 17.6909 11.9555L19 5.09091H5.09091" stroke="#9B9B9B" stroke-width="2" stroke-linecap="round" stroke-linejoin="round"/>
</svg>
